<svg width="30" height="30" viewBox="0 0 30 30" fill="none" xmlns="http://www.w3.org/2000/svg">
<path d="M21.515 2.79625C21.5898 2.56138 21.5691 2.3065 21.4573 2.0868C21.3456 1.86709 21.1518 1.70022 20.918 1.62233C20.6841 1.54443 20.429 1.56177 20.2078 1.67058C19.9867 1.7794 19.8172 1.97094 19.7362 2.20375L18.7987 5.015C18.724 5.24986 18.7447 5.50474 18.8564 5.72445C18.9681 5.94415 19.1619 6.11102 19.3958 6.18891C19.6296 6.26681 19.8848 6.24948 20.1059 6.14066C20.3271 6.03184 20.4965 5.8403 20.5775 5.6075L21.515 2.79625ZM27.225 2.775C27.4006 2.95078 27.4992 3.18906 27.4992 3.4375C27.4992 3.68593 27.4006 3.92421 27.225 4.1L24.1 7.225C24.0142 7.3171 23.9107 7.39098 23.7957 7.44222C23.6807 7.49346 23.5565 7.52101 23.4306 7.52323C23.3048 7.52546 23.1797 7.5023 23.063 7.45515C22.9463 7.408 22.8402 7.33782 22.7512 7.24879C22.6622 7.15977 22.592 7.05373 22.5448 6.93699C22.4977 6.82026 22.4745 6.69522 22.4768 6.56934C22.479 6.44346 22.5065 6.31932 22.5578 6.20432C22.609 6.08932 22.6829 5.98582 22.775 5.9L25.9 2.775C26.0758 2.59943 26.3141 2.50082 26.5625 2.50082C26.8109 2.50082 27.0492 2.59943 27.225 2.775ZM16.0875 4.675C15.765 4.32963 15.3631 4.06811 14.9167 3.9131C14.4703 3.7581 13.9928 3.71428 13.5257 3.78545C13.0585 3.85662 12.6158 4.04063 12.2358 4.32153C11.8558 4.60243 11.55 4.97175 11.345 5.3975L3.9725 20.6975C3.76479 21.1282 3.6997 21.6139 3.78669 22.0841C3.87367 22.5543 4.1082 22.9846 4.45625 23.3125L6.255 25.0087C6.57738 25.3127 6.98234 25.5147 7.41908 25.5894C7.85582 25.6641 8.3049 25.6082 8.71 25.4287L10.4812 24.6437C11.0277 25.8415 12.0245 26.7754 13.2553 27.2427C14.4861 27.71 15.8516 27.673 17.0553 27.1398C18.259 26.6066 19.2038 25.6201 19.6847 24.3946C20.1655 23.169 20.1436 21.8033 19.6237 20.5937L23.8987 18.6987C24.3225 18.511 24.6952 18.2247 24.9857 17.8636C25.2763 17.5025 25.4763 17.0772 25.569 16.6231C25.6617 16.169 25.6445 15.6993 25.5188 15.2532C25.393 14.8071 25.1625 14.3976 24.8462 14.0587L16.0875 4.675ZM17.9087 21.3525C18.2123 22.1043 18.2118 22.9447 17.9072 23.6962C17.6027 24.4476 17.018 25.0513 16.2767 25.3797C15.5354 25.7081 14.6955 25.7355 13.9343 25.4561C13.1731 25.1767 12.5504 24.6125 12.1975 23.8825L17.9087 21.3525ZM23.75 10.3125C23.75 10.0639 23.8488 9.8254 24.0246 9.64958C24.2004 9.47377 24.4389 9.375 24.6875 9.375H27.1875C27.4361 9.375 27.6746 9.47377 27.8504 9.64958C28.0262 9.8254 28.125 10.0639 28.125 10.3125C28.125 10.5611 28.0262 10.7996 27.8504 10.9754C27.6746 11.1512 27.4361 11.25 27.1875 11.25H24.6875C24.4389 11.25 24.2004 11.1512 24.0246 10.9754C23.8488 10.7996 23.75 10.5611 23.75 10.3125Z" fill="#1FCC7E"/>
</svg>
