<svg version="1.0" viewBox="0 0 24 24" xml:space="preserve" xmlns="http://www.w3.org/2000/svg"><path d="M10 9c0-1.7 1.3-3 3-3s3 1.3 3 3-1.3 3-3 3-3-1.3-3-3zm3 5c-4.6 0-6 3.3-6 3.3V19h12v-1.7S17.6 14 13 14z" fill="#ffffff" class="fill-000000"></path><circle cx="19.5" cy="8.5" r="2.5" fill="#ffffff" class="fill-000000"></circle><path d="M19.5 13c-1.2 0-2.1.3-2.8.8 2.3 1.1 3.2 3 3.2 3.2v.1H24v-1.3c0-.1-1.1-2.8-4.5-2.8z" fill="#ffffff" class="fill-000000"></path><path fill="none" stroke="#ffffff" stroke-miterlimit="10" stroke-width="2" d="M5 8v8M9 12H1" class="stroke-000000"></path></svg>