<?xml version="1.0" encoding="utf-8" ?>
<svg xmlns="http://www.w3.org/2000/svg" xmlns:xlink="http://www.w3.org/1999/xlink" width="81" height="80">
	<path fill="#BEBDBF" d="M0 0L12.0039 0L28.0327 0L31.8679 0L48.1396 0L51.9696 0L68.0331 0L80.5625 0C80.9367 0.582071 80.9708 1.09236 80.9865 1.76591C81.132 7.99831 81.0049 14.2629 81.0063 20.4981L81.0061 57.0587L81.0013 72.6553C81.0005 74.6226 81.3146 77.2491 80.926 79.1406C80.8632 79.4464 80.7302 79.738 80.5625 80L78.0081 80L77.8447 80L72.2275 80L72.0568 80L8.00656 80L0 80L0 0ZM0 0L0 80L8.00656 80L72.0568 80C70.7973 78.0966 67.3141 75.2754 65.5474 73.5367C59.6109 67.694 53.7472 61.2491 47.3066 55.9698C45.6892 53.6133 41.6438 50.2134 39.4837 48.0814Q33.7188 42.4118 27.8914 36.8064C26.0538 35.0225 24.2892 33.0432 22.3429 31.3887C16.9879 26.6791 12.4319 20.9244 6.88304 16.4068L6.5386 16.4603C6.52906 16.3727 6.51127 16.2902 6.49018 16.2049C6.27985 15.3544 3.43225 13.0644 2.71347 12.3408C3.51727 11.3049 4.52722 10.3793 5.44327 9.44016Q2.65915 6.83102 0 4.09459C0.707222 3.04107 1.6749 2.06713 2.50121 1.0988C5.07616 3.00671 7.50472 5.42114 9.67481 7.77449C10.1052 5.15226 11.1098 2.49699 12.0039 0L0 0ZM48.1396 0Q49.3194 9.61527 50.3211 19.2507C50.5662 21.8069 51.084 24.6445 50.8606 27.2079C50.696 29.0955 50.1351 30.9799 48.9649 32.4954C47.3166 34.6301 44.6215 35.6509 42.0149 35.9746C40.8553 36.1185 39.6613 36.0808 38.4945 36.0626C43.2114 40.2897 47.765 44.7424 52.2883 49.1758C54.8167 51.6539 57.2332 54.3318 60.0082 56.5368L59.9804 37.9411C62.4031 39.0484 65.0575 40.0048 67.7576 39.8638C68.5065 39.8247 71.7666 39.374 71.9514 39.8039C72.7506 41.6633 71.4462 63.8577 72.2968 68.6906C74.0078 70.5379 79.942 75.5571 80.7377 77.2731C80.539 78.0471 79.0206 79.4329 78.3138 79.8467Q78.1653 79.932 78.0081 80L80.5625 80C80.7302 79.738 80.8632 79.4464 80.926 79.1406C81.3146 77.2491 81.0005 74.6226 81.0013 72.6553L81.0061 57.0587L81.0063 20.4981C81.0049 14.2629 81.132 7.99831 80.9865 1.76591C80.9708 1.09236 80.9367 0.582071 80.5625 0L68.0331 0L51.9696 0L48.1396 0ZM28.0327 0C27.6831 5.06304 27.0683 10.1147 26.4744 15.1537C26.1542 17.8705 25.9713 20.6522 25.4649 23.3385C26.7735 24.4903 28.1077 25.6235 29.3341 26.8637C28.9275 23.0001 29.7677 18.6249 30.2035 14.7485L31.8679 0L28.0327 0ZM74.5816 76.7241C73.966 77.9812 73.1379 78.9547 72.2275 80L77.8447 80Q76.2342 78.3411 74.5816 76.7241Z"/>
	<path fill="#444348" d="M5.44327 9.44016C13.26 15.9703 20.2603 23.7917 27.612 30.8608L45.4065 48.2749C55.163 57.6875 65.0824 67.0566 74.5816 76.7241C73.966 77.9812 73.1379 78.9547 72.2275 80L72.0568 80C70.7973 78.0966 67.3141 75.2754 65.5474 73.5367C59.6109 67.694 53.7472 61.2491 47.3066 55.9698C45.6892 53.6133 41.6438 50.2134 39.4837 48.0814Q33.7188 42.4118 27.8914 36.8064C26.0538 35.0225 24.2892 33.0432 22.3429 31.3887C16.9879 26.6791 12.4319 20.9244 6.88304 16.4068L6.5386 16.4603C6.52906 16.3727 6.51127 16.2902 6.49018 16.2049C6.27985 15.3544 3.43225 13.0644 2.71347 12.3408C3.51727 11.3049 4.52722 10.3793 5.44327 9.44016Z"/>
	<path fill="#BEBDBF" d="M51.9696 0L68.0331 0C69.7772 4.66063 71.2739 9.43313 72.8603 14.1516C74.294 18.4161 76.4047 23.2247 76.8456 27.7178C77.0326 29.6231 76.5488 31.3789 75.3208 32.8663C73.9132 34.5714 71.6874 35.7442 69.4852 35.9455C65.9585 36.2679 62.1114 35.1215 59.3894 32.8524C57.5659 31.3323 56.2613 29.3448 55.4536 27.1233C54.1393 23.5085 53.9979 19.3729 53.5733 15.581Q52.68 7.79993 51.9696 0Z"/>
	<path fill="#BEBDBF" d="M0 0L12.0039 0C11.1098 2.49699 10.1052 5.15226 9.67481 7.77449C7.50472 5.42114 5.07616 3.00671 2.50121 1.0988C1.6749 2.06713 0.707222 3.04107 0 4.09459Q2.65915 6.83101 5.44327 9.44016C4.52722 10.3793 3.51727 11.3049 2.71347 12.3408C3.43225 13.0644 6.27985 15.3544 6.49018 16.2049C6.51127 16.2902 6.52906 16.3727 6.5386 16.4603L6.88304 16.4068C12.4319 20.9244 16.9879 26.6791 22.3429 31.3887C24.2892 33.0432 26.0538 35.0225 27.8914 36.8064Q33.7188 42.4118 39.4837 48.0814C41.6438 50.2134 45.6892 53.6133 47.3066 55.9698C53.7472 61.2491 59.6109 67.694 65.5474 73.5367C67.3141 75.2754 70.7973 78.0966 72.0568 80L8.00656 80L0 80L0 0ZM0 0L0 80L8.00656 80L7.9761 54.938C7.97412 49.7689 7.78585 44.5236 8.10627 39.3645L8.51404 39.1255C9.00356 39.327 9.48253 39.5994 9.98476 39.7574C12.7818 40.6376 17.607 39.2127 20.0998 37.907C19.8835 43.9238 20.1587 49.977 20.0438 56.0016Q33.6751 55.8984 47.3066 55.9698C45.6892 53.6133 41.6438 50.2134 39.4837 48.0814Q33.7188 42.4118 27.8914 36.8064C26.0538 35.0225 24.2892 33.0432 22.3429 31.3887C16.9879 26.6791 12.4319 20.9244 6.88304 16.4068L6.5386 16.4603C6.52906 16.3727 6.51127 16.2902 6.49018 16.2049C6.27985 15.3544 3.43225 13.0644 2.71347 12.3408C3.51727 11.3049 4.52722 10.3793 5.44327 9.44016Q2.65915 6.83102 0 4.09459C0.707222 3.04107 1.6749 2.06713 2.50121 1.0988C5.07616 3.00671 7.50472 5.42114 9.67481 7.77449C10.1052 5.15226 11.1098 2.49699 12.0039 0L0 0Z"/>
	<path fill="#BEBDBF" d="M6.5386 16.4603L6.88304 16.4068C12.4319 20.9244 16.9879 26.6791 22.3429 31.3887C20.7953 32.7318 19.2723 33.888 17.3866 34.7278C14.369 36.0717 10.8127 36.44 7.68751 35.2232C5.97336 34.5558 4.71759 33.33 3.98039 31.6508C1.96494 27.06 4.84192 20.8037 6.5386 16.4603Z"/>
</svg>
