<svg viewBox="0 0 64 64" xml:space="preserve" xmlns="http://www.w3.org/2000/svg"><path d="M56.826 32C56.826 18.311 45.689 7.174 32 7.174S7.174 18.311 7.174 32 18.311 56.826 32 56.826 56.826 45.689 56.826 32zm-22.389-.038a2.356 2.356 0 1 1-4.712 0V19.709a2.356 2.356 0 0 1 4.712 0v12.253zm13.594.079c0 8.839-7.191 16.03-16.031 16.03s-16.031-7.191-16.031-16.03c0-4.285 1.669-8.313 4.701-11.34.46-.46 1.062-.689 1.665-.689s1.207.23 1.667.691c.92.921.919 2.412-.002 3.332a11.246 11.246 0 0 0-3.318 8.006c0 6.24 5.077 11.317 11.318 11.317s11.318-5.077 11.318-11.317c0-3.023-1.176-5.865-3.314-8.003a2.357 2.357 0 0 1 3.334-3.332 15.932 15.932 0 0 1 4.693 11.335z" fill="#d32f2f" class="fill-000000"></path></svg>